<?xml version="1.0" encoding="UTF-8"?>
<svg width="1771px" height="1096px" viewBox="0 0 1771 1096" version="1.1" xmlns="http://www.w3.org/2000/svg" xmlns:xlink="http://www.w3.org/1999/xlink">
    <!-- Generator: Sketch 3.8.3 (29802) - http://www.bohemiancoding.com/sketch -->
    <title>Group 3</title>
    <desc>Created with Sketch.</desc>
    <defs></defs>
    <g id="final" stroke="none" stroke-width="1" fill="none" fill-rule="evenodd">
        <g id="Group-3">
            <g id="Group" transform="translate(530.000000, 0.000000)">
                <path d="M646.115556,0 L57.8844444,0 C25.8133333,0 0,25.8133333 0,57.8844444 L0,484.195556 C0,516.266667 25.8133333,539.733333 57.8844444,539.733333 L260.48,539.733333 C247.182222,602.311111 233.102222,619.52 200.248889,630.471111 L200.248889,630.471111 C170.524444,645.333333 161.137778,653.155556 161.137778,675.057778 C161.137778,688.355556 168.96,704 204.942222,704 L499.057778,704 C535.822222,704 542.862222,688.355556 542.862222,675.057778 C542.862222,653.937778 534.257778,646.115556 504.533333,631.253333 C504.533333,631.253333 504.533333,631.253333 503.751111,630.471111 L503.751111,630.471111 C470.897778,619.52 456.817778,602.311111 443.52,539.733333 L646.115556,539.733333 C678.186667,539.733333 704,517.048889 704,484.195556 L704,57.8844444 C704,25.8133333 678.186667,0 646.115556,0 L646.115556,0 Z M492.8,657.848889 C505.315556,664.106667 512.355556,668.8 513.137778,670.364444 L513.137778,672.711111 C511.573333,672.711111 507.662222,672.711111 499.057778,672.711111 L204.942222,672.711111 C196.337778,672.711111 192.426667,673.493333 190.08,672.711111 L190.08,671.146667 C191.644444,669.582222 198.684444,664.106667 211.2,657.848889 C259.697778,641.422222 276.906667,610.915556 290.204444,540.515556 L413.013333,540.515556 C427.093333,610.133333 444.302222,640.64 492.8,657.848889 L492.8,657.848889 Z M672.711111,484.195556 C672.711111,500.622222 661.76,508.444444 646.115556,508.444444 L57.8844444,508.444444 C42.24,508.444444 31.2888889,500.622222 31.2888889,484.195556 L31.2888889,438.044444 L672.711111,438.044444 L672.711111,484.195556 L672.711111,484.195556 Z M672.711111,414.577778 L31.2888889,414.577778 L31.2888889,57.8844444 C31.2888889,42.24 42.24,31.2888889 57.8844444,31.2888889 L645.333333,31.2888889 C661.76,31.2888889 671.928889,42.24 671.928889,57.8844444 L671.928889,414.577778 L672.711111,414.577778 Z M344.96,499.057778 C357.056263,499.057778 366.862222,489.251819 366.862222,477.155556 C366.862222,465.059292 357.056263,455.253333 344.96,455.253333 C332.863737,455.253333 323.057778,465.059292 323.057778,477.155556 C323.057778,489.251819 332.863737,499.057778 344.96,499.057778 Z" id="Combined-Shape" fill="#FFFFFF"></path>
                <g id="Browsercode" transform="translate(187.733333, 96.995556)" stroke="#FFFFFF" stroke-width="11.71875">
                    <rect id="Rectangle-435" x="0" y="46.7972947" width="328.533333" height="222.28715"></rect>
                    <rect id="Rectangle-436" x="0" y="0" width="328.533333" height="46.7972947"></rect>
                    <ellipse id="Oval-475" cx="23.4666667" cy="23.3986473" rx="5.86666667" ry="5.84966184"></ellipse>
                    <ellipse id="Oval-476" cx="52.8" cy="23.3986473" rx="5.86666667" ry="5.84966184"></ellipse>
                    <ellipse id="Oval-477" cx="82.1333333" cy="23.3986473" rx="5.86666667" ry="5.84966184"></ellipse>
                    <rect id="Rectangle-459" x="41.0666667" y="81.8952657" width="46.9333333" height="64.3462802" rx="11.71875"></rect>
                    <rect id="Rectangle-459" x="170.144472" y="81.8952657" width="46.9333333" height="64.3462802" rx="11.71875"></rect>
                    <rect id="Rectangle-459" x="211.222277" y="175.443157" width="46.9333333" height="64.3462802" rx="11.71875"></rect>
                    <rect id="Rectangle-459" x="41.0666667" y="175.443157" width="46.9333333" height="64.3462802" rx="11.71875"></rect>
                    <path d="M123.211138,81.8952657 C129.685128,81.8952657 134.933333,87.1609921 134.933333,93.5478915 L134.933333,146.288244" id="Rectangle-459"></path>
                    <path d="M164.288944,175.443157 C170.762933,175.443157 176.011138,180.708884 176.011138,187.095783 L176.011138,239.836135" id="Rectangle-459"></path>
                    <path d="M123.211138,175.443157 C129.685128,175.443157 134.933333,180.708884 134.933333,187.095783 L134.933333,239.836135" id="Rectangle-459"></path>
                    <path d="M252.288944,81.8952657 C258.762933,81.8952657 264.011138,87.1609921 264.011138,93.5478915 L264.011138,146.288244" id="Rectangle-459"></path>
                </g>
            </g>
            <g id="Group-2" transform="translate(0.000000, 804.000000)" fill="#FFFFFF">
                <path d="M823.3,232 L909.1,232 L909.1,210.7 L876.7,210.7 L876.7,165.1 L906.1,165.1 C950.2,165.1 979,142.6 979,107.2 C979,71.8 950.2,49.3 906.1,49.3 L823.3,49.3 L823.3,70.6 L850.3,70.6 L850.3,210.7 L823.3,210.7 L823.3,232 Z M876.7,70.6 L906.7,70.6 C939.1,70.6 952.3,86.8 952.3,107.2 C952.3,127.6 939.1,143.8 906.7,143.8 L876.7,143.8 L876.7,70.6 Z M995.8,232 L1067.5,232 L1067.5,211.6 L1043.2,211.6 L1043.2,141.7 C1052.2,133.9 1066.3,126.1 1086.4,126.1 L1090.9,126.1 L1090.9,100.3 L1087.9,100.3 C1064.5,100.3 1050.4,115.3 1042.3,128.8 L1042.3,103.6 L995.8,103.6 L995.8,124 L1017.4,124 L1017.4,211.6 L995.8,211.6 L995.8,232 Z M1170.4,235.3 C1210.6,235.3 1235.8,208.9 1235.8,167.8 C1235.8,127 1210.6,100.3 1170.4,100.3 C1130.2,100.3 1105,127 1105,167.8 C1105,208.9 1130.2,235.3 1170.4,235.3 L1170.4,235.3 Z M1170.4,215.5 C1144.9,215.5 1131.4,195.7 1131.4,167.8 C1131.4,139.9 1144.9,120.1 1170.4,120.1 C1195.9,120.1 1209.4,139.9 1209.4,167.8 C1209.4,195.7 1195.9,215.5 1170.4,215.5 L1170.4,215.5 Z M1306.3,235.3 C1343.5,235.3 1357.6,218.8 1357.6,197.8 C1357.6,148.9 1283.8,164.8 1283.8,135.7 C1283.8,126.4 1291.3,119.5 1308.7,119.5 C1315.3,119.5 1324.6,120.4 1330.9,121.9 L1330.9,141.1 L1351.9,141.1 L1351.9,107.2 C1342,103.9 1324.9,100.3 1308.7,100.3 C1275.7,100.3 1259.2,115.6 1259.2,138.1 C1259.2,185.8 1333,171.4 1333,199.6 C1333,210.1 1322.5,216.1 1305.7,216.1 C1296.7,216.1 1285.6,214.3 1278.1,212.2 L1278.1,193.9 L1257.4,193.9 L1257.4,228.1 C1269.1,231.7 1288.9,235.3 1306.3,235.3 L1306.3,235.3 Z M1373.2,291.7 L1446.4,291.7 L1446.4,271.3 L1420.6,271.3 L1420.6,221.5 C1430.2,229.6 1442.2,235.3 1458.4,235.3 C1495.6,235.3 1517.8,206.5 1517.8,167.2 C1517.8,128.8 1496.8,100.3 1461.7,100.3 C1441.9,100.3 1428.7,109.3 1419.1,119.8 L1419.1,103.6 L1373.2,103.6 L1373.2,124 L1395.1,124 L1395.1,271.3 L1373.2,271.3 L1373.2,291.7 Z M1454.8,120.4 C1480.9,120.4 1491.7,142.6 1491.7,167.8 C1491.7,195.4 1478.8,215.2 1452.4,215.2 C1438.3,215.2 1428.1,209.8 1420.6,202.6 L1420.6,136.3 C1429,127.9 1439.8,120.4 1454.8,120.4 L1454.8,120.4 Z M1603.6,235.3 C1623.7,235.3 1638.7,229.6 1649.5,223.3 L1649.5,202.9 C1638.1,209.2 1623.7,215.2 1607.2,215.2 C1580.8,215.2 1566.4,200.5 1564,175.3 L1655.8,175.3 C1656.4,171.4 1656.4,167.5 1656.4,163.9 C1656.4,131.5 1639.6,100.3 1599.4,100.3 C1561,100.3 1538.2,128.2 1538.2,168.1 C1538.2,207.4 1560.7,235.3 1603.6,235.3 L1603.6,235.3 Z M1599.7,119.5 C1623.1,119.5 1631.2,138.4 1632.4,156.7 L1564,156.7 C1566.4,136 1577.8,119.5 1599.7,119.5 L1599.7,119.5 Z M1675,232 L1746.7,232 L1746.7,211.6 L1722.4,211.6 L1722.4,141.7 C1731.4,133.9 1745.5,126.1 1765.6,126.1 L1770.1,126.1 L1770.1,100.3 L1767.1,100.3 C1743.7,100.3 1729.6,115.3 1721.5,128.8 L1721.5,103.6 L1675,103.6 L1675,124 L1696.6,124 L1696.6,211.6 L1675,211.6 L1675,232 Z" id="Prosper"></path>
                <path d="M0.6,232 L86.4,232 L86.4,210.7 L54,210.7 L54,165.1 L83.4,165.1 C127.5,165.1 156.3,142.6 156.3,107.2 C156.3,71.8 127.5,49.3 83.4,49.3 L0.6,49.3 L0.6,70.6 L27.6,70.6 L27.6,210.7 L0.6,210.7 L0.6,232 Z M54,70.6 L84,70.6 C116.4,70.6 129.6,86.8 129.6,107.2 C129.6,127.6 116.4,143.8 84,143.8 L54,143.8 L54,70.6 Z M272.7,235.6 C301.2,235.6 324.3,226.9 337.8,219.7 L337.8,194.5 C321.6,203.8 298.8,212.8 274.8,212.8 C235.2,212.8 202.5,189.1 202.5,140.2 C202.5,93.4 232.2,67.9 273.6,67.9 C287.1,67.9 302.1,70.6 312.3,74.2 L312.3,107.8 L337.8,107.8 L337.8,59.8 C324.6,53.5 299.4,45.7 272.4,45.7 C213,45.7 175.2,83.2 175.2,141.4 C175.2,200.8 215.1,235.6 272.7,235.6 L272.7,235.6 Z M409.5,235.3 C446.7,235.3 460.8,218.8 460.8,197.8 C460.8,148.9 387,164.8 387,135.7 C387,126.4 394.5,119.5 411.9,119.5 C418.5,119.5 427.8,120.4 434.1,121.9 L434.1,141.1 L455.1,141.1 L455.1,107.2 C445.2,103.9 428.1,100.3 411.9,100.3 C378.9,100.3 362.4,115.6 362.4,138.1 C362.4,185.8 436.2,171.4 436.2,199.6 C436.2,210.1 425.7,216.1 408.9,216.1 C399.9,216.1 388.8,214.3 381.3,212.2 L381.3,193.9 L360.6,193.9 L360.6,228.1 C372.3,231.7 392.1,235.3 409.5,235.3 L409.5,235.3 Z" id="PCs" opacity="0.95"></path>
                <path d="M642,290 C722.081289,290 787,225.081289 787,145 C787,64.9187113 722.081289,0 642,0 C561.918711,0 497,64.9187113 497,145 C497,225.081289 561.918711,290 642,290 Z M555.812,187.137 C557.552009,187.659003 558.813496,188.354996 559.5965,189.225 C560.379504,190.095004 560.510003,190.964996 559.988,191.835 C559.465997,192.705004 558.422008,193.270499 556.856,193.5315 C555.289992,193.792501 553.637009,193.749002 551.897,193.401 C550.156991,192.878997 548.895504,192.183004 548.1125,191.313 C547.329496,190.442996 547.198997,189.573004 547.721,188.703 C548.243003,187.832996 549.286992,187.267501 550.853,187.0065 C552.419008,186.745499 554.071991,186.788998 555.812,187.137 Z M617.35,192.879 L653.89,192.618 L651.541,182.178 L695.389,182.439 L699.304,188.703 L698.521,192.096 L695.65,206.19 L694.345,211.671 L692.518,215.064 L665.896,240.12 L585.769,240.12 L565.15,213.237 L568.804,195.489 C570.196007,195.837002 571.587993,195.924001 572.98,195.75 C574.198006,195.575999 575.372494,195.271502 576.5035,194.8365 C577.634506,194.401498 578.460997,193.488007 578.983,192.096 C579.505003,190.703993 578.548012,189.355507 576.112,188.0505 C573.675988,186.745493 571.022514,185.484006 568.1515,184.266 C565.280486,183.047994 562.627012,181.743007 560.191,180.351 C557.754988,178.958993 556.797997,177.480008 557.32,175.914 C557.668002,174.347992 558.624992,173.6085 560.191,173.6955 C561.757008,173.7825 563.49699,174.173997 565.411,174.87 C567.49901,175.740004 569.847987,176.957992 572.458,178.524 L575.329,165.474 L666.157,119.277 L670.333,99.18 L637.447,99.702 L640.579,113.274 L595.426,113.274 L593.86,82.998 L596.731,76.212 L626.224,51.678 L701.392,51.678 L722.794,78.561 L707.917,147.465 L617.35,192.879 Z" id="Combined-Shape"></path>
            </g>
        </g>
    </g>
</svg>